<mxfile host="app.diagrams.net" modified="2022-01-27T22:25:10.609Z" agent="5.0 (Windows NT 10.0; Win64; x64) AppleWebKit/537.36 (KHTML, like Gecko) Chrome/97.0.4692.99 Safari/537.36" etag="8wI3eRQ_JYnf4QNFtuUa" version="16.4.7" type="github" pages="3">
  <diagram id="mFJ4cPxP4Nz1lQu3-xth" name="v1">
    <mxGraphModel dx="1318" dy="1113" grid="1" gridSize="10" guides="1" tooltips="1" connect="1" arrows="1" fold="1" page="1" pageScale="1" pageWidth="850" pageHeight="1100" math="0" shadow="0">
      <root>
        <mxCell id="0" />
        <mxCell id="1" parent="0" />
        <mxCell id="e2iO8RETkdHzR0rTZRDU-7" value="" style="rounded=1;whiteSpace=wrap;html=1;dashed=1;" parent="1" vertex="1">
          <mxGeometry x="545" y="47.75" width="325" height="422.25" as="geometry" />
        </mxCell>
        <mxCell id="e2iO8RETkdHzR0rTZRDU-1" value="Cloudfront" style="outlineConnect=0;dashed=0;verticalLabelPosition=bottom;verticalAlign=top;align=center;html=1;shape=mxgraph.aws3.cloudfront;fillColor=#F58536;gradientColor=none;" parent="1" vertex="1">
          <mxGeometry x="680" y="100" width="76.5" height="93" as="geometry" />
        </mxCell>
        <mxCell id="e2iO8RETkdHzR0rTZRDU-2" value="Route53" style="outlineConnect=0;dashed=0;verticalLabelPosition=bottom;verticalAlign=top;align=center;html=1;shape=mxgraph.aws3.route_53;fillColor=#F58536;gradientColor=none;" parent="1" vertex="1">
          <mxGeometry x="683" y="221.75" width="70.5" height="85.5" as="geometry" />
        </mxCell>
        <mxCell id="e2iO8RETkdHzR0rTZRDU-3" value="S3" style="outlineConnect=0;dashed=0;verticalLabelPosition=bottom;verticalAlign=top;align=center;html=1;shape=mxgraph.aws3.s3;fillColor=#E05243;gradientColor=none;" parent="1" vertex="1">
          <mxGeometry x="683" y="330" width="76.5" height="93" as="geometry" />
        </mxCell>
        <mxCell id="e2iO8RETkdHzR0rTZRDU-5" value="VPC" style="outlineConnect=0;dashed=0;verticalLabelPosition=bottom;verticalAlign=top;align=center;html=1;shape=mxgraph.aws3.vpc;fillColor=#F58536;gradientColor=none;" parent="1" vertex="1">
          <mxGeometry x="570" y="68" width="50" height="60" as="geometry" />
        </mxCell>
        <mxCell id="e2iO8RETkdHzR0rTZRDU-8" value="User" style="sketch=0;outlineConnect=0;fontColor=#232F3E;gradientColor=none;fillColor=#232F3D;strokeColor=none;dashed=0;verticalLabelPosition=bottom;verticalAlign=top;align=center;html=1;fontSize=12;fontStyle=0;aspect=fixed;pointerEvents=1;shape=mxgraph.aws4.user;" parent="1" vertex="1">
          <mxGeometry x="30" y="219.88" width="78" height="78" as="geometry" />
        </mxCell>
        <mxCell id="e2iO8RETkdHzR0rTZRDU-9" value="Internet" style="aspect=fixed;perimeter=ellipsePerimeter;html=1;align=center;shadow=0;dashed=0;spacingTop=3;image;image=img/lib/active_directory/internet_cloud.svg;" parent="1" vertex="1">
          <mxGeometry x="320" y="236.38" width="71.43" height="45" as="geometry" />
        </mxCell>
        <mxCell id="n3E-uAyF0VLs_RpY6y46-4" value="" style="shape=flexArrow;endArrow=classic;startArrow=classic;html=1;rounded=0;" edge="1" parent="1">
          <mxGeometry width="100" height="100" relative="1" as="geometry">
            <mxPoint x="410" y="258.38" as="sourcePoint" />
            <mxPoint x="590" y="258.38" as="targetPoint" />
          </mxGeometry>
        </mxCell>
        <mxCell id="n3E-uAyF0VLs_RpY6y46-5" value="" style="shape=flexArrow;endArrow=classic;startArrow=classic;html=1;rounded=0;" edge="1" parent="1">
          <mxGeometry width="100" height="100" relative="1" as="geometry">
            <mxPoint x="120" y="256.5000000000001" as="sourcePoint" />
            <mxPoint x="300" y="256.5000000000001" as="targetPoint" />
          </mxGeometry>
        </mxCell>
      </root>
    </mxGraphModel>
  </diagram>
  <diagram id="-FPHY_Ss5wcTtwPcMgRI" name="v2">
    <mxGraphModel dx="1318" dy="1113" grid="1" gridSize="10" guides="1" tooltips="1" connect="1" arrows="1" fold="1" page="1" pageScale="1" pageWidth="850" pageHeight="1100" math="0" shadow="0">
      <root>
        <mxCell id="RcW36cILYPGp9oJjtcSt-0" />
        <mxCell id="RcW36cILYPGp9oJjtcSt-1" parent="RcW36cILYPGp9oJjtcSt-0" />
        <mxCell id="RcW36cILYPGp9oJjtcSt-2" value="" style="rounded=1;whiteSpace=wrap;html=1;dashed=1;" vertex="1" parent="RcW36cILYPGp9oJjtcSt-1">
          <mxGeometry x="545" y="47.75" width="405" height="422.25" as="geometry" />
        </mxCell>
        <mxCell id="RcW36cILYPGp9oJjtcSt-3" value="Cloudfront" style="outlineConnect=0;dashed=0;verticalLabelPosition=bottom;verticalAlign=top;align=center;html=1;shape=mxgraph.aws3.cloudfront;fillColor=#F58536;gradientColor=none;" vertex="1" parent="RcW36cILYPGp9oJjtcSt-1">
          <mxGeometry x="680" y="100" width="76.5" height="93" as="geometry" />
        </mxCell>
        <mxCell id="RcW36cILYPGp9oJjtcSt-4" value="Route53" style="outlineConnect=0;dashed=0;verticalLabelPosition=bottom;verticalAlign=top;align=center;html=1;shape=mxgraph.aws3.route_53;fillColor=#F58536;gradientColor=none;" vertex="1" parent="RcW36cILYPGp9oJjtcSt-1">
          <mxGeometry x="683" y="221.75" width="70.5" height="85.5" as="geometry" />
        </mxCell>
        <mxCell id="RcW36cILYPGp9oJjtcSt-5" value="S3" style="outlineConnect=0;dashed=0;verticalLabelPosition=bottom;verticalAlign=top;align=center;html=1;shape=mxgraph.aws3.s3;fillColor=#E05243;gradientColor=none;" vertex="1" parent="RcW36cILYPGp9oJjtcSt-1">
          <mxGeometry x="683" y="330" width="76.5" height="93" as="geometry" />
        </mxCell>
        <mxCell id="RcW36cILYPGp9oJjtcSt-6" value="VPC" style="outlineConnect=0;dashed=0;verticalLabelPosition=bottom;verticalAlign=top;align=center;html=1;shape=mxgraph.aws3.vpc;fillColor=#F58536;gradientColor=none;" vertex="1" parent="RcW36cILYPGp9oJjtcSt-1">
          <mxGeometry x="570" y="68" width="50" height="60" as="geometry" />
        </mxCell>
        <mxCell id="RcW36cILYPGp9oJjtcSt-7" value="User" style="sketch=0;outlineConnect=0;fontColor=#232F3E;gradientColor=none;fillColor=#232F3D;strokeColor=none;dashed=0;verticalLabelPosition=bottom;verticalAlign=top;align=center;html=1;fontSize=12;fontStyle=0;aspect=fixed;pointerEvents=1;shape=mxgraph.aws4.user;" vertex="1" parent="RcW36cILYPGp9oJjtcSt-1">
          <mxGeometry x="30" y="219.88" width="78" height="78" as="geometry" />
        </mxCell>
        <mxCell id="RcW36cILYPGp9oJjtcSt-8" value="Internet" style="aspect=fixed;perimeter=ellipsePerimeter;html=1;align=center;shadow=0;dashed=0;spacingTop=3;image;image=img/lib/active_directory/internet_cloud.svg;" vertex="1" parent="RcW36cILYPGp9oJjtcSt-1">
          <mxGeometry x="320" y="236.38" width="71.43" height="45" as="geometry" />
        </mxCell>
        <mxCell id="RcW36cILYPGp9oJjtcSt-9" value="" style="shape=flexArrow;endArrow=classic;startArrow=classic;html=1;rounded=0;" edge="1" parent="RcW36cILYPGp9oJjtcSt-1">
          <mxGeometry width="100" height="100" relative="1" as="geometry">
            <mxPoint x="410" y="258.3800000000001" as="sourcePoint" />
            <mxPoint x="590" y="258.3800000000001" as="targetPoint" />
          </mxGeometry>
        </mxCell>
        <mxCell id="RcW36cILYPGp9oJjtcSt-10" value="" style="shape=flexArrow;endArrow=classic;startArrow=classic;html=1;rounded=0;" edge="1" parent="RcW36cILYPGp9oJjtcSt-1">
          <mxGeometry width="100" height="100" relative="1" as="geometry">
            <mxPoint x="120" y="256.5" as="sourcePoint" />
            <mxPoint x="300" y="256.5" as="targetPoint" />
          </mxGeometry>
        </mxCell>
        <mxCell id="EcaVulnbB6559CpDU-G3-0" value="API Gateway" style="outlineConnect=0;dashed=0;verticalLabelPosition=bottom;verticalAlign=top;align=center;html=1;shape=mxgraph.aws3.api_gateway;fillColor=#D9A741;gradientColor=none;" vertex="1" parent="RcW36cILYPGp9oJjtcSt-1">
          <mxGeometry x="790" y="150" width="76.5" height="93" as="geometry" />
        </mxCell>
        <mxCell id="EcaVulnbB6559CpDU-G3-1" value="Labmda" style="outlineConnect=0;dashed=0;verticalLabelPosition=bottom;verticalAlign=top;align=center;html=1;shape=mxgraph.aws3.lambda;fillColor=#F58534;gradientColor=none;" vertex="1" parent="RcW36cILYPGp9oJjtcSt-1">
          <mxGeometry x="790" y="281.38" width="76.5" height="93" as="geometry" />
        </mxCell>
      </root>
    </mxGraphModel>
  </diagram>
  <diagram id="W7bCZb6AP83vehbJrxfa" name="Deployments">
    <mxGraphModel dx="1318" dy="1113" grid="1" gridSize="10" guides="1" tooltips="1" connect="1" arrows="1" fold="1" page="1" pageScale="1" pageWidth="850" pageHeight="1100" math="0" shadow="0">
      <root>
        <mxCell id="Ajnb2-8__Jj_rYYKAIfD-0" />
        <mxCell id="Ajnb2-8__Jj_rYYKAIfD-1" parent="Ajnb2-8__Jj_rYYKAIfD-0" />
        <mxCell id="WLN8u38fRH69nosS1adu-7" value="" style="rounded=1;whiteSpace=wrap;html=1;dashed=1;" parent="Ajnb2-8__Jj_rYYKAIfD-1" vertex="1">
          <mxGeometry x="800" y="40" width="300" height="430" as="geometry" />
        </mxCell>
        <mxCell id="WLN8u38fRH69nosS1adu-1" value="VPC" style="outlineConnect=0;dashed=0;verticalLabelPosition=bottom;verticalAlign=top;align=center;html=1;shape=mxgraph.aws3.vpc;fillColor=#F58536;gradientColor=none;" parent="Ajnb2-8__Jj_rYYKAIfD-1" vertex="1">
          <mxGeometry x="830" y="60" width="50" height="60" as="geometry" />
        </mxCell>
        <mxCell id="WLN8u38fRH69nosS1adu-4" value="Developer" style="sketch=0;outlineConnect=0;fontColor=#232F3E;gradientColor=none;fillColor=#232F3D;strokeColor=none;dashed=0;verticalLabelPosition=bottom;verticalAlign=top;align=center;html=1;fontSize=12;fontStyle=0;aspect=fixed;pointerEvents=1;shape=mxgraph.aws4.user;" parent="Ajnb2-8__Jj_rYYKAIfD-1" vertex="1">
          <mxGeometry x="347" y="217.5" width="78" height="78" as="geometry" />
        </mxCell>
        <mxCell id="WLN8u38fRH69nosS1adu-5" value="Github repo" style="dashed=0;outlineConnect=0;html=1;align=center;labelPosition=center;verticalLabelPosition=bottom;verticalAlign=top;shape=mxgraph.weblogos.github" parent="Ajnb2-8__Jj_rYYKAIfD-1" vertex="1">
          <mxGeometry x="530" y="217.5" width="75" height="75" as="geometry" />
        </mxCell>
        <mxCell id="WLN8u38fRH69nosS1adu-9" value="" style="shape=flexArrow;endArrow=classic;html=1;rounded=0;" parent="Ajnb2-8__Jj_rYYKAIfD-1" edge="1">
          <mxGeometry width="50" height="50" relative="1" as="geometry">
            <mxPoint x="572.5" y="390" as="sourcePoint" />
            <mxPoint x="692.5" y="390" as="targetPoint" />
          </mxGeometry>
        </mxCell>
        <mxCell id="WLN8u38fRH69nosS1adu-10" value="" style="shape=flexArrow;endArrow=classic;html=1;rounded=0;" parent="Ajnb2-8__Jj_rYYKAIfD-1" edge="1">
          <mxGeometry width="50" height="50" relative="1" as="geometry">
            <mxPoint x="747.5" y="390" as="sourcePoint" />
            <mxPoint x="867.5" y="390" as="targetPoint" />
          </mxGeometry>
        </mxCell>
        <mxCell id="WLN8u38fRH69nosS1adu-11" value="" style="shape=flexArrow;endArrow=classic;html=1;rounded=0;" parent="Ajnb2-8__Jj_rYYKAIfD-1" edge="1">
          <mxGeometry width="50" height="50" relative="1" as="geometry">
            <mxPoint x="572.5" y="170" as="sourcePoint" />
            <mxPoint x="692.5" y="170" as="targetPoint" />
          </mxGeometry>
        </mxCell>
        <mxCell id="WLN8u38fRH69nosS1adu-12" value="" style="shape=flexArrow;endArrow=classic;html=1;rounded=0;" parent="Ajnb2-8__Jj_rYYKAIfD-1" edge="1">
          <mxGeometry width="50" height="50" relative="1" as="geometry">
            <mxPoint x="747.5" y="170" as="sourcePoint" />
            <mxPoint x="867.5" y="170" as="targetPoint" />
          </mxGeometry>
        </mxCell>
        <mxCell id="WLN8u38fRH69nosS1adu-15" value="Github&amp;nbsp;actions" style="dashed=0;outlineConnect=0;html=1;align=center;labelPosition=center;verticalLabelPosition=bottom;verticalAlign=top;shape=mxgraph.weblogos.github" parent="Ajnb2-8__Jj_rYYKAIfD-1" vertex="1">
          <mxGeometry x="760" y="217.5" width="75" height="75" as="geometry" />
        </mxCell>
        <mxCell id="mDETT_vxZDZB_dvwasSw-0" value="S3" style="outlineConnect=0;dashed=0;verticalLabelPosition=bottom;verticalAlign=top;align=center;html=1;shape=mxgraph.aws3.s3;fillColor=#E05243;gradientColor=none;" vertex="1" parent="Ajnb2-8__Jj_rYYKAIfD-1">
          <mxGeometry x="920" y="160" width="76.5" height="93" as="geometry" />
        </mxCell>
        <mxCell id="mDETT_vxZDZB_dvwasSw-1" value="DynamoDB" style="outlineConnect=0;dashed=0;verticalLabelPosition=bottom;verticalAlign=top;align=center;html=1;shape=mxgraph.aws3.dynamo_db;fillColor=#2E73B8;gradientColor=none;" vertex="1" parent="Ajnb2-8__Jj_rYYKAIfD-1">
          <mxGeometry x="922.25" y="300" width="72" height="81" as="geometry" />
        </mxCell>
        <mxCell id="mDETT_vxZDZB_dvwasSw-3" value="Github&amp;nbsp;actions" style="dashed=0;outlineConnect=0;html=1;align=center;labelPosition=center;verticalLabelPosition=bottom;verticalAlign=top;shape=mxgraph.weblogos.github" vertex="1" parent="Ajnb2-8__Jj_rYYKAIfD-1">
          <mxGeometry x="1070" y="217.5" width="75" height="75" as="geometry" />
        </mxCell>
        <mxCell id="mDETT_vxZDZB_dvwasSw-4" value="" style="rounded=1;whiteSpace=wrap;html=1;dashed=1;" vertex="1" parent="Ajnb2-8__Jj_rYYKAIfD-1">
          <mxGeometry x="1190" y="40" width="300" height="430" as="geometry" />
        </mxCell>
        <mxCell id="mDETT_vxZDZB_dvwasSw-5" value="VPC" style="outlineConnect=0;dashed=0;verticalLabelPosition=bottom;verticalAlign=top;align=center;html=1;shape=mxgraph.aws3.vpc;fillColor=#F58536;gradientColor=none;" vertex="1" parent="Ajnb2-8__Jj_rYYKAIfD-1">
          <mxGeometry x="1210" y="60" width="50" height="60" as="geometry" />
        </mxCell>
        <mxCell id="mDETT_vxZDZB_dvwasSw-6" value="" style="shape=flexArrow;endArrow=classic;html=1;rounded=0;" edge="1" parent="Ajnb2-8__Jj_rYYKAIfD-1">
          <mxGeometry width="50" height="50" relative="1" as="geometry">
            <mxPoint x="1080" y="170" as="sourcePoint" />
            <mxPoint x="1200" y="170" as="targetPoint" />
          </mxGeometry>
        </mxCell>
        <mxCell id="mDETT_vxZDZB_dvwasSw-7" value="" style="shape=flexArrow;endArrow=classic;html=1;rounded=0;" edge="1" parent="Ajnb2-8__Jj_rYYKAIfD-1">
          <mxGeometry width="50" height="50" relative="1" as="geometry">
            <mxPoint x="1080" y="390" as="sourcePoint" />
            <mxPoint x="1200" y="390" as="targetPoint" />
          </mxGeometry>
        </mxCell>
        <mxCell id="mDETT_vxZDZB_dvwasSw-8" value="" style="sketch=0;outlineConnect=0;fontColor=#232F3E;gradientColor=none;fillColor=#BF0816;strokeColor=none;dashed=0;verticalLabelPosition=bottom;verticalAlign=top;align=center;html=1;fontSize=12;fontStyle=0;aspect=fixed;pointerEvents=1;shape=mxgraph.aws4.development_environment;" vertex="1" parent="Ajnb2-8__Jj_rYYKAIfD-1">
          <mxGeometry x="1310" y="220" width="78" height="71" as="geometry" />
        </mxCell>
      </root>
    </mxGraphModel>
  </diagram>
</mxfile>
